<svg xmlns="http://www.w3.org/2000/svg" viewBox="0 0 1462.6 424.29"><defs><style>.cls-1,.cls-2{fill:#00a376;}.cls-2{font-size:151px;font-family:ClashDisplay-Bold, Clash Display;font-weight:700;}</style></defs><g id="Layer_2" data-name="Layer 2"><g id="Logo"><polygon class="cls-1" points="102.72 228.9 102.72 282.65 143.02 309.52 143.02 340.73 76.76 296.56 76.76 285.81 76.76 208.44 76.76 160.87 32.04 188.84 32.04 320.49 187.74 424.3 187.74 285.59 102.72 228.9"/><polygon class="cls-1" points="201.82 0 0 126.21 0 178.95 201.82 52.75 403.65 178.95 403.65 126.21 201.82 0"/><polygon class="cls-1" points="254.21 153.57 224.19 153.57 224.19 123.55 179.46 123.55 179.46 153.57 149.44 153.57 149.44 198.3 179.46 198.3 179.46 228.32 224.19 228.32 224.19 198.3 254.21 198.3 254.21 153.57"/><polygon class="cls-1" points="300.93 228.9 300.93 282.65 260.63 309.52 260.63 340.73 326.89 296.56 326.89 285.81 326.89 208.44 326.89 160.87 371.61 188.84 371.61 320.49 215.91 424.3 215.91 285.59 300.93 228.9"/><path class="cls-1" d="M498.73,294.34h9.49l10.53,16.93,10.52-16.93h9.5v40h-8.7V308.24l-11.26,17.1h-.23l-11.16-16.93v26h-8.69Z"/><path class="cls-1" d="M559.82,294.34H590v7.84H568.51v8.12h18.88v7.84H568.51v8.41h21.74v7.83H559.82Z"/><path class="cls-1" d="M609.58,294.34H625.2a23.75,23.75,0,0,1,8.61,1.52,20.39,20.39,0,0,1,6.75,4.2,18.91,18.91,0,0,1,4.37,6.32,20,20,0,0,1,1.55,7.87v.11a20.13,20.13,0,0,1-1.55,7.9,18.69,18.69,0,0,1-4.37,6.34,20.65,20.65,0,0,1-6.75,4.24,23.33,23.33,0,0,1-8.61,1.54H609.58Zm15.62,32.09a13.45,13.45,0,0,0,4.92-.86,10.57,10.57,0,0,0,3.8-2.46,11.4,11.4,0,0,0,2.46-3.77,12.79,12.79,0,0,0,.89-4.86v-.12a13.09,13.09,0,0,0-.89-4.86,11.36,11.36,0,0,0-2.46-3.83,10.91,10.91,0,0,0-3.8-2.49,13.25,13.25,0,0,0-4.92-.89h-6.81v24.14Z"/><path class="cls-1" d="M666.15,294.34H675v40h-8.81Z"/><path class="cls-1" d="M715.17,335.07a20.86,20.86,0,0,1-8.18-1.6,20.22,20.22,0,0,1-6.52-4.38,19.91,19.91,0,0,1-4.29-6.55,21.07,21.07,0,0,1-1.54-8.06v-.12a20.77,20.77,0,0,1,5.83-14.61,19.7,19.7,0,0,1,6.58-4.46,21.36,21.36,0,0,1,8.47-1.63,26.84,26.84,0,0,1,5.11.45,21.93,21.93,0,0,1,4.21,1.26,18.76,18.76,0,0,1,3.49,1.95,23.88,23.88,0,0,1,3,2.51l-5.6,6.47a21.39,21.39,0,0,0-4.78-3.32,12.16,12.16,0,0,0-5.46-1.2,11.06,11.06,0,0,0-8.35,3.66,12.42,12.42,0,0,0-2.4,4,13.27,13.27,0,0,0-.86,4.83v.11a13.51,13.51,0,0,0,.86,4.86,12.74,12.74,0,0,0,2.37,4,11.08,11.08,0,0,0,8.38,3.72,12.22,12.22,0,0,0,5.8-1.26,22.26,22.26,0,0,0,4.72-3.43l5.61,5.66a27.69,27.69,0,0,1-3.21,3,18.68,18.68,0,0,1-7.94,3.69A25.68,25.68,0,0,1,715.17,335.07Z"/><path class="cls-1" d="M763.79,294.06h8.12l17.16,40.32h-9.2l-3.67-9H759.27l-3.66,9h-9Zm9.27,23.56-5.32-13-5.32,13Z"/><path class="cls-1" d="M806.69,294.34h8.81v32.09h20v7.95H806.69Z"/><path class="cls-1" d="M896.44,335a26.41,26.41,0,0,1-9-1.57,23.79,23.79,0,0,1-8-4.83l5.2-6.24a26.08,26.08,0,0,0,5.64,3.55,15,15,0,0,0,6.32,1.31,7.67,7.67,0,0,0,4.26-1,3.13,3.13,0,0,0,1.51-2.77v-.11a3.47,3.47,0,0,0-.31-1.52,3.17,3.17,0,0,0-1.2-1.23,13,13,0,0,0-2.47-1.14,40.29,40.29,0,0,0-4.1-1.21,49.19,49.19,0,0,1-5.51-1.65,15.6,15.6,0,0,1-4.18-2.26,9.11,9.11,0,0,1-2.67-3.35,11.61,11.61,0,0,1-1-5v-.11a11.65,11.65,0,0,1,1-4.95,11.37,11.37,0,0,1,2.87-3.8,13,13,0,0,1,4.41-2.46,17.83,17.83,0,0,1,5.66-.86,23.88,23.88,0,0,1,8.09,1.32,23.29,23.29,0,0,1,6.78,3.77l-4.58,6.64a28.49,28.49,0,0,0-5.26-2.89,13.34,13.34,0,0,0-5.15-1.06,6.22,6.22,0,0,0-3.86,1,3.06,3.06,0,0,0-1.28,2.49v.11a3.6,3.6,0,0,0,.37,1.69,3.37,3.37,0,0,0,1.35,1.29,12.73,12.73,0,0,0,2.66,1.08c1.13.35,2.55.75,4.28,1.21a40.47,40.47,0,0,1,5.42,1.8,15.39,15.39,0,0,1,4,2.4,9.19,9.19,0,0,1,2.47,3.29,11.23,11.23,0,0,1,.83,4.52v.11a12.38,12.38,0,0,1-1.08,5.29,10.8,10.8,0,0,1-3,3.89,13.75,13.75,0,0,1-4.61,2.41A20.17,20.17,0,0,1,896.44,335Z"/><path class="cls-1" d="M939.51,302.46H927.32v-8.12H960.5v8.12H948.32v31.92h-8.81Z"/><path class="cls-1" d="M998.14,335.07a22,22,0,0,1-8.53-1.63,21.31,21.31,0,0,1-6.72-4.41,19.81,19.81,0,0,1-4.4-6.52,20.46,20.46,0,0,1-1.57-8v-.12a20.13,20.13,0,0,1,1.6-8,20.45,20.45,0,0,1,11.18-11,22,22,0,0,1,8.55-1.63,21.74,21.74,0,0,1,8.52,1.63,20.9,20.9,0,0,1,6.72,4.4,19.68,19.68,0,0,1,4.41,6.52,20.55,20.55,0,0,1,1.57,8v.11a20.21,20.21,0,0,1-1.6,8,20.45,20.45,0,0,1-11.18,11A22.18,22.18,0,0,1,998.14,335.07Zm.11-8.12a12,12,0,0,0,4.86-1,11,11,0,0,0,3.81-2.68,12.86,12.86,0,0,0,2.46-4,13.15,13.15,0,0,0,.88-4.83v-.12a13.39,13.39,0,0,0-.88-4.86,12,12,0,0,0-6.38-6.72,11.71,11.71,0,0,0-4.86-1,11.89,11.89,0,0,0-4.89,1,11.28,11.28,0,0,0-3.78,2.69,12.56,12.56,0,0,0-2.46,4,13.08,13.08,0,0,0-.89,4.83v.11a13.31,13.31,0,0,0,.89,4.86,12,12,0,0,0,6.35,6.72A11.66,11.66,0,0,0,998.25,327Z"/><path class="cls-1" d="M1038.75,294.34h18.3q7.6,0,11.67,4.06a12.37,12.37,0,0,1,3.43,9.16v.11a12.57,12.57,0,0,1-2.37,7.92,13.7,13.7,0,0,1-6.21,4.49l9.78,14.3h-10.29l-8.58-12.81h-6.92v12.81h-8.81Zm17.73,19.45a7.3,7.3,0,0,0,5-1.54,5.22,5.22,0,0,0,1.75-4.12V308a5.13,5.13,0,0,0-1.83-4.29,8.11,8.11,0,0,0-5.09-1.43h-8.75v11.5Z"/><path class="cls-1" d="M1091.54,294.34h30.15v7.84h-21.45v8.12h18.87v7.84h-18.87v8.41H1122v7.83h-30.43Z"/><rect class="cls-1" x="444.95" y="106.77" width="12" height="292.67"/><text class="cls-2" transform="translate(498.09 223.95)">SehaySkut</text></g></g></svg>