<svg xmlns="http://www.w3.org/2000/svg" viewBox="0 0 403.65 424.29"><defs><style>.cls-1{fill:#f9f9f9;}</style></defs><g id="Layer_2" data-name="Layer 2"><g id="Logo"><polygon class="cls-1" points="102.72 228.9 102.72 282.65 143.02 309.52 143.02 340.73 76.76 296.56 76.76 285.81 76.76 208.44 76.76 160.87 32.04 188.84 32.04 320.49 187.74 424.3 187.74 285.59 102.72 228.9"/><polygon class="cls-1" points="201.82 0 0 126.21 0 178.95 201.82 52.75 403.65 178.95 403.65 126.21 201.82 0"/><polygon class="cls-1" points="254.21 153.57 224.19 153.57 224.19 123.55 179.46 123.55 179.46 153.57 149.44 153.57 149.44 198.3 179.46 198.3 179.46 228.32 224.19 228.32 224.19 198.3 254.21 198.3 254.21 153.57"/><polygon class="cls-1" points="300.93 228.9 300.93 282.65 260.63 309.52 260.63 340.73 326.89 296.56 326.89 285.81 326.89 208.44 326.89 160.87 371.61 188.84 371.61 320.49 215.91 424.3 215.91 285.59 300.93 228.9"/></g></g></svg>